HIERARCHY
ROOT ui
{
	 OFFSET 0 0 0
	 CHANNELS 3 XPosition YPosition Z Position
	 EndSite
	 {
	 OFFSET 0 -1 0
	 }
}
ROOT li
{
	 OFFSET 0 0 0
	 CHANNELS 3 XPosition YPosition Z Position
	 EndSite
	 {
	 OFFSET 0 -1 0
	 }
}
ROOT ul
{
	 OFFSET 0 0 0
	 CHANNELS 3 XPosition YPosition Z Position
	 EndSite
	 {
	 OFFSET 0 -1 0
	 }
}
ROOT ll
{
	 OFFSET 0 0 0
	 CHANNELS 3 XPosition YPosition Z Position
	 EndSite
	 {
	 OFFSET 0 -1 0
	 }
}
ROOT tt
{
	 OFFSET 0 0 0
	 CHANNELS 3 XPosition YPosition Z Position
	 EndSite
	 {
	 OFFSET 0 -1 0
	 }
}
ROOT tb
{
	 OFFSET 0 0 0
	 CHANNELS 3 XPosition YPosition Z Position
	 EndSite
	 {
	 OFFSET 0 -1 0
	 }
}
ROOT td
{
	 OFFSET 0 0 0
	 CHANNELS 3 XPosition YPosition Z Position
	 EndSite
	 {
	 OFFSET 0 -1 0
	 }
}
ROOT v
{
	 OFFSET 0 0 0
	 CHANNELS 3 XPosition YPosition Z Position
	 EndSite
	 {
	 OFFSET 0 -1 0
	 }
}
ROOT bn
{
	 OFFSET 0 0 0
	 CHANNELS 3 XPosition YPosition Z Position
	 EndSite
	 {
	 OFFSET 0 -1 0
	 }
}
MOTION
Frames: 10
Frame Time: 0.002
-8.21727991104126E-4	-4.863719940185547E-4	0		0.4031568603515625	-2.33614501953125	0		-1.1113175048828126	-0.07348783111572266	0		-0.8700328979492188	-2.335202880859375	0		1.4314747314453125	-0.6073939208984375	0		3.06964404296875	0.053194602966308596	0		4.46848046875	0.08699399566650391	0		5.60279150390625	0.03854660415649414	0		-0.21695068359375	5.93237158203125	0		
-0.0014474860429763794	-9.499800205230713E-4	0		0.3770035400390625	-2.3322568359375	0		-1.1020003662109374	-0.0758463134765625	0		-0.8692269897460938	-2.333478271484375	0		1.43374609375	-0.6052837524414062	0		3.051888671875	0.04424793243408203	0		4.45313525390625	0.09964485168457031	0		5.60212060546875	0.03363238525390625	0		-0.08269672393798828	5.949529296875	0		
0.04394224166870117	-0.0012681570053100586	0		0.3798563232421875	-2.327897216796875	0		-1.0945125732421874	-0.06916897583007812	0		-0.8588950805664063	-2.356931396484375	0		1.44116748046875	-0.5952796630859375	0		3.08073828125	0.0674310531616211	0		4.4645205078125	0.09677603149414063	0		5.61150732421875	0.03149574661254883	0		-0.06653802490234376	5.9598056640625	0		
0.007514017105102539	0.007934339046478271	0		0.40558987426757814	-2.33096728515625	0		-1.106094970703125	-0.0671320343017578	0		-0.86965478515625	-2.331980224609375	0		1.4373304443359376	-0.6000679931640625	0		3.028822998046875	0.04911101531982422	0		4.45398193359375	0.09731240844726563	0		5.59612109375	0.040818851470947264	0		-0.08271926879882813	5.95068310546875	0		
0.003880590915679932	0.004538019180297851	0		0.40233889770507814	-2.334487548828125	0		-1.1097481689453126	-0.07023442077636718	0		-0.8728869018554688	-2.3341640625	0		1.43659326171875	-0.6008994140625	0		3.06726904296875	0.048115409851074216	0		4.44931494140625	0.0897620849609375	0		5.5904013671875	0.030986509323120116	0		-0.08172746276855469	5.95025244140625	0		
0.003331470966339111	0.004098375797271728	0		0.3971087951660156	-2.3389521484375	0		-1.1143931884765625	-0.07430821990966797	0		-0.87607861328125	-2.336338134765625	0		1.430753173828125	-0.608611328125	0		3.0396201171875	0.04140726852416992	0		4.44878759765625	0.0881737289428711	0		5.58985888671875	0.029103296279907227	0		-0.09495023345947265	5.939107421875	0		
-2.4528299272060395E-4	7.347229719161987E-4	0		0.345149658203125	-2.331476318359375	0		-1.107795654296875	-0.06758940887451172	0		-0.8436212768554687	-2.3592021484375	0		1.43315869140625	-0.60545166015625	0		3.061380859375	0.05378958892822266	0		4.4582490234375	0.08444083404541015	0		5.594501953125	0.035180328369140625	0		-0.2111738739013672	5.93000244140625	0		
0.005385121822357178	0.006211114883422852	0		0.40108843994140625	-2.333093017578125	0		-1.10139990234375	-0.0728634796142578	0		-0.910090087890625	-2.329099365234375	0		1.3976905517578124	-0.5975086669921875	0		3.026734375	0.04432326507568359	0		4.45607958984375	0.09799842834472657	0		5.59402294921875	0.033427101135253906	0		-0.07784042358398438	5.94802880859375	0		
0.0018723039627075195	0.002886960029602051	0		0.37314208984375	-2.33102783203125	0		-1.1087696533203124	-0.06785418701171875	0		-0.8436361694335938	-2.3576318359375	0		1.4339906005859375	-0.6039551391601562	0		3.069421630859375	0.049378936767578124	0		4.45150732421875	0.08967034912109376	0		5.59357568359375	0.031755392074584964	0		-0.07692557525634766	5.94766259765625	0		
0.0014511879682540894	0.0025230839252471924	0		0.3950654296875	-2.3389375	0		-1.1122664794921875	-0.07091446685791016	0		-0.8781189575195313	-2.33512646484375	0		1.4334371337890626	-0.6046312255859375	0		3.057870849609375	0.041570655822753905	0		4.4631025390625	0.08809302520751953	0		5.59799755859375	0.022072607040405274	0		-0.07703003692626953	5.9483359375	0		
